<?xml version="1.0" encoding="utf-8"?>
<!-- Generator: Adobe Illustrator 23.0.1, SVG Export Plug-In . SVG Version: 6.00 Build 0)  -->
<svg version="1.1" id="Layer_1" xmlns="http://www.w3.org/2000/svg" xmlns:xlink="http://www.w3.org/1999/xlink" x="0px" y="0px"
	 viewBox="0 0 56.3 41.9" style="enable-background:new 0 0 56.3 41.9;" xml:space="preserve">
<style type="text/css">
	.st0{fill:none;stroke:#FFFFFF;stroke-width:2;}
	.st1{fill:#FFFFFF;}
	.st2{fill:#FF3E6C;}
	.st3{fill-rule:evenodd;clip-rule:evenodd;fill:#FFFFFF;}
</style>
<g id="Grupo_136" transform="matrix(0.996, -0.087, 0.087, 0.996, -3.902, -8.09)">
	<g id="Grupo_58" transform="matrix(0.999, 0.052, -0.052, 0.999, 3.777, 5.855)">
		<g id="Grupo_62" transform="translate(0 10.372)">
			
				<ellipse id="Elipse_1" transform="matrix(-0.9994 -3.511338e-02 3.511338e-02 -0.9994 19.4833 45.7482)" class="st0" cx="10.1" cy="22.7" rx="8.6" ry="8.6"/>
			
				<ellipse id="Elipse_3" transform="matrix(-0.9994 -3.511338e-02 3.511338e-02 -0.9994 49.9945 46.285)" class="st1" cx="25.4" cy="22.7" rx="3.5" ry="3.5"/>
			
				<ellipse id="Elipse_6" transform="matrix(-0.9994 -3.511338e-02 3.511338e-02 -0.9994 20.5631 45.2688)" class="st2" cx="10.7" cy="22.5" rx="2.7" ry="2.7"/>
		</g>
		<g id="Grupo_95" transform="matrix(0.996, 0.087, -0.087, 0.996, 2.259, -2.663)">
			<path id="Ret창ngulo_40" class="st1" d="M29.5,12.5L29.5,12.5c0.3-0.1,0.5,0.1,0.6,0.4l0.7,2.8c0.1,0.3-0.1,0.5-0.4,0.6l0,0
				c-0.3,0.1-0.5-0.1-0.6-0.4l-0.7-2.8C29,12.8,29.2,12.6,29.5,12.5z"/>
			<path id="Ret창ngulo_41" class="st1" d="M34.7,12.6L34.7,12.6c0.2,0.1,0.4,0.4,0.3,0.7l-1.2,2.6c-0.1,0.2-0.4,0.4-0.7,0.3l0,0
				c-0.2-0.1-0.4-0.4-0.3-0.7l1.2-2.6C34.2,12.6,34.5,12.5,34.7,12.6z"/>
			<path id="Ret창ngulo_42" class="st1" d="M26,15L26,15c0.2-0.2,0.5-0.2,0.7-0.1l2.2,1.9c0.2,0.2,0.2,0.5,0.1,0.7l0,0
				c-0.2,0.2-0.5,0.2-0.7,0.1L26,15.7C25.8,15.6,25.8,15.2,26,15z"/>
		</g>
		<g id="Grupo_94">
			<path id="Caminho_11" class="st3" d="M16.7,15.9l-1.5,0.8l2.1,3.7l-6.7,11.2l1.5,0.9l6.2-10.4l6,10.9l0.7-0.4l1.1,0.9l5.7-6.5
				L30.5,26l-5,5.7l-2.9-5.3l6.1-5L27.6,20l-5.9,4.8L16.7,15.9z"/>
			<path id="Caminho_13" class="st1" d="M15.5,14.1c-1.6-0.6-3.6-0.3-3.7,1.1c-0.2,3.7,7.5,1.4,8.1,0.4C20,12.9,17.1,14.7,15.5,14.1
				z"/>
			<path id="Caminho_15" class="st1" d="M10.4,34.9L24.2,36l0.7-1.7l-14.4-0.5L10.4,34.9z"/>
			<path id="Caminho_16" class="st1" d="M10.6,33l13.9-1l0.5-1.8L10.7,32L10.6,33z"/>
			
				<ellipse id="Elipse_7" transform="matrix(-0.9994 -3.511338e-02 3.511338e-02 -0.9994 20.1989 66.0064)" class="st1" cx="10.7" cy="32.8" rx="2.7" ry="2.7"/>
			<path id="Caminho_17" class="st3" d="M6.6,31.1c0.1-0.3,0.2-0.5,0.3-0.7c0.2-0.3,0.4-0.5,0.7-0.7L7,28.4
				c-0.6,0.3-1.1,0.7-1.4,1.2c-0.2,0.4-0.4,0.8-0.5,1.3L6.6,31.1z M4.7,33.5c0.1,1.2,0.6,2.3,1.4,3.3c1.2,1.3,2.8,2.1,4.6,2.1l0-1.5
				c-1.3,0-2.6-0.5-3.5-1.5c-0.6-0.7-1-1.5-1.1-2.4L4.7,33.5z"/>
			<g id="Grupo_61" transform="matrix(0.974, -0.225, 0.225, 0.974, 25.758, 5.699)">
				<path id="Caminho_62" class="st0" d="M7.2,24.9c4.4-1.1,8.8,1.6,9.9,5.9s-1.6,8.8-5.9,9.9c-4.4,1.1-8.8-1.6-9.9-5.9c0,0,0,0,0,0
					C0.2,30.4,2.8,25.9,7.2,24.9z"/>
				<g id="Grupo_60" transform="matrix(0.875, -0.485, 0.485, 0.875, 1.898, 8.074)">
					<path id="Caminho_12" class="st3" d="M12.1,9.1c0.4,0.2,0.9,0.2,1.2,0c0.9-0.7-0.6-2.6-0.6-2.6l1.2-0.8c0,0,1.7,2.7,1.2,3.8
						c-0.4,1-1.4,1.5-2.4,1.3c-0.6-0.1-1.1-0.3-1.5-0.7l-9.7,9.6l-1.2-1.2l3.9-3.8l-5.7-2.8l0.7-1.5l6.2,3.1l1.8-1.7L2.3,8.3
						l0.9-1.4l5.1,3.5l2.6-2.5L12.1,9.1z"/>
					<path id="Ret창ngulo_39" class="st1" d="M11.1,1.8L11.1,1.8c0.6-0.3,1.3-0.1,1.6,0.5l1.5,2.8c0.3,0.6,0.1,1.3-0.5,1.6l0,0
						c-0.6,0.3-1.3,0.1-1.6-0.5l-1.5-2.8C10.3,2.8,10.6,2.1,11.1,1.8z"/>
				</g>
				<path id="Caminho_14" class="st1" d="M9.7,30.8l0.9-4.9l1.9-0.3l-2,5.5L9.7,30.8z"/>
				
					<ellipse id="Elipse_4" transform="matrix(-0.9658 -0.2592 0.2592 -0.9658 11.4994 63.4759)" class="st2" cx="9.9" cy="31" rx="2" ry="2"/>
				
					<ellipse id="Elipse_5" transform="matrix(-0.9658 -0.2592 0.2592 -0.9658 11.4994 63.4759)" class="st1" cx="9.9" cy="31" rx="2" ry="2"/>
				<path id="Caminho_18" class="st3" d="M5.8,35.8c-0.2-0.2-0.3-0.3-0.5-0.6c-0.2-0.3-0.2-0.6-0.2-0.9l-1.4-0.1
					c0,0.6,0.1,1.2,0.4,1.7c0.2,0.4,0.5,0.7,0.8,1L5.8,35.8z M7,38.5C8,39,9.2,39,10.3,38.8c1.6-0.4,3-1.5,3.8-3l-1.3-0.7
					c-0.6,1.1-1.6,2-2.8,2.3c-0.8,0.2-1.7,0.1-2.5-0.2L7,38.5z"/>
			</g>
		</g>
	</g>
</g>
</svg>
