<?xml version="1.0" encoding="utf-8"?>
<!-- Generator: Adobe Illustrator 23.0.1, SVG Export Plug-In . SVG Version: 6.00 Build 0)  -->
<svg version="1.1" id="Layer_1" xmlns="http://www.w3.org/2000/svg" xmlns:xlink="http://www.w3.org/1999/xlink" x="0px" y="0px"
	 viewBox="0 0 35.7 48.7" style="enable-background:new 0 0 35.7 48.7;" xml:space="preserve">
<style type="text/css">
	.st0{fill:none;}
	.st1{fill:#FFFFFF;}
</style>
<g id="Grupo_135" transform="translate(-12.013 -5.52)">
	<g id="icone-ciclista" transform="translate(12.013 5.52)">
		<g id="Grupo_65" transform="translate(0.815 35.716)">
			<path id="Caminho_53" class="st0" d="M17,10.6v1.6H6.5v-1.6H0V6.5C0,2.9,2.9,0,6.5,0c0,0,0,0,0,0h4.9L17,3.2L17,10.6L17,10.6z"/>
		</g>
		<g id="Grupo_66" transform="translate(0.003 34.904)">
			<path id="Caminho_54" class="st1" d="M0.8,8.1C0.4,8.1,0,7.8,0,7.3c0,0,0,0,0,0C0,3.3,3.3,0,7.3,0c0.4,0,0.8,0.4,0.8,0.8
				c0,0.4-0.4,0.8-0.8,0.8c-3.1,0-5.7,2.5-5.7,5.7C1.6,7.8,1.3,8.1,0.8,8.1C0.8,8.1,0.8,8.1,0.8,8.1z"/>
		</g>
		<g id="Grupo_67" transform="translate(27.596 34.903)">
			<path id="Caminho_55" class="st1" d="M7.3,8.1c-0.4,0-0.8-0.4-0.8-0.8c0-3.1-2.5-5.7-5.7-5.7C0.4,1.6,0,1.3,0,0.8
				C0,0.4,0.3,0,0.8,0c0,0,0,0,0.1,0c4,0,7.3,3.3,7.3,7.3C8.1,7.8,7.8,8.1,7.3,8.1C7.3,8.1,7.3,8.1,7.3,8.1z"/>
		</g>
		<g id="Grupo_68" transform="translate(6.493 34.904)">
			<path id="Caminho_56" class="st1" d="M5.7,1.6H0.8C0.4,1.6,0,1.2,0,0.8C0,0.4,0.4,0,0.8,0h4.9c0.4,0,0.8,0.4,0.8,0.8
				C6.5,1.3,6.1,1.6,5.7,1.6L5.7,1.6z"/>
		</g>
		<g id="Grupo_69" transform="translate(22.726 34.904)">
			<path id="Caminho_57" class="st1" d="M5.7,1.6H0.8C0.4,1.6,0,1.2,0,0.8C0,0.4,0.4,0,0.8,0h4.9c0.4,0,0.8,0.4,0.8,0.8
				C6.5,1.3,6.1,1.6,5.7,1.6L5.7,1.6z"/>
		</g>
		<g id="Grupo_70" transform="translate(0.003 41.393)">
			<path id="Caminho_58" class="st1" d="M0.8,7.3C0.4,7.3,0,6.9,0,6.5V0.8C0,0.4,0.4,0,0.8,0c0.4,0,0.8,0.4,0.8,0.8v5.7
				C1.6,6.9,1.3,7.3,0.8,7.3C0.8,7.3,0.8,7.3,0.8,7.3z"/>
		</g>
		<g id="Grupo_71" transform="translate(34.095 41.402)">
			<path id="Caminho_59" class="st1" d="M0.8,7.3C0.4,7.3,0,6.9,0,6.5V0.8C0,0.4,0.3,0,0.8,0c0.4,0,0.8,0.3,0.8,0.8c0,0,0,0,0,0.1
				v5.7C1.6,6.9,1.3,7.3,0.8,7.3C0.8,7.3,0.8,7.3,0.8,7.3L0.8,7.3z"/>
		</g>
		<g id="Grupo_72" transform="translate(11.367 30.249)">
			<path id="Caminho_60" class="st1" d="M0.8,6.3C0.4,6.3,0,5.9,0,5.5c0,0,0,0,0,0V0.8C0,0.4,0.3,0,0.8,0c0.4,0,0.8,0.3,0.8,0.8
				c0,0,0,0,0,0.1v4.7C1.6,5.9,1.3,6.3,0.8,6.3C0.8,6.3,0.8,6.3,0.8,6.3z"/>
		</g>
		<g id="Grupo_73" transform="translate(22.73 30.253)">
			<path id="Caminho_61" class="st1" d="M0.8,6.3C0.4,6.3,0,5.9,0,5.5l0,0V0.8C0,0.4,0.4,0,0.8,0c0.4,0,0.8,0.4,0.8,0.8v4.6
				C1.6,5.9,1.3,6.3,0.8,6.3C0.8,6.3,0.8,6.3,0.8,6.3z"/>
		</g>
		<g id="Grupo_74" transform="translate(4.874 19.478)">
			<path id="Caminho_62" class="st1" d="M13,13.8C5.8,13.8,0,8,0,0.8C0,0.4,0.3,0,0.8,0s0.8,0.3,0.8,0.8c0,0,0,0,0,0.1
				c0,6.3,5.1,11.4,11.4,11.4S24.3,7.1,24.3,0.8c0-0.4,0.4-0.8,0.8-0.8C25.6,0,26,0.4,26,0.8C26,8,20.2,13.8,13,13.8z"/>
		</g>
		<g id="Grupo_75" transform="translate(4.874 14.614)">
			<path id="Caminho_63" class="st1" d="M0.8,6.5C0.4,6.5,0,6.1,0,5.7V0.8C0,0.4,0.4,0,0.8,0c0.4,0,0.8,0.4,0.8,0.8v4.9
				C1.6,6.1,1.3,6.5,0.8,6.5C0.8,6.5,0.8,6.5,0.8,6.5L0.8,6.5z"/>
		</g>
		<g id="Grupo_76" transform="translate(29.224 14.618)">
			<path id="Caminho_64" class="st1" d="M0.8,6.5C0.4,6.5,0,6.1,0,5.7V0.8C0,0.4,0.4,0,0.8,0c0.4,0,0.8,0.4,0.8,0.8v4.9
				C1.6,6.1,1.3,6.5,0.8,6.5C0.8,6.5,0.8,6.5,0.8,6.5L0.8,6.5z"/>
		</g>
		<g id="Grupo_77" transform="translate(2.438 12.18)">
			<path id="Caminho_65" class="st1" d="M3.2,4.1C1.5,4.1,0,2.6,0,0.8C0,0.4,0.4,0,0.8,0c0.4,0,0.8,0.4,0.8,0.8
				c0,0.9,0.7,1.6,1.6,1.6c0.4,0,0.8,0.3,0.8,0.8S3.8,4,3.2,4.1C3.3,4.1,3.3,4.1,3.2,4.1z"/>
		</g>
		<g id="Grupo_78" transform="translate(29.221 12.18)">
			<path id="Caminho_66" class="st1" d="M0.8,4.1C0.4,4,0,3.7,0,3.2c0-0.4,0.4-0.8,0.8-0.8c0.9,0,1.6-0.7,1.6-1.6
				C2.5,0.4,2.8,0,3.3,0C3.7,0,4,0.4,4.1,0.8C4.1,2.6,2.6,4.1,0.8,4.1z"/>
		</g>
		<g id="Grupo_79" transform="translate(4.868 14.61)">
			<path id="Caminho_67" class="st1" d="M25.2,1.6H0.8C0.4,1.6,0,1.3,0,0.8C0,0.4,0.4,0,0.8,0h24.4C25.6,0,26,0.3,26,0.8
				C26,1.2,25.7,1.6,25.2,1.6C25.2,1.6,25.2,1.6,25.2,1.6L25.2,1.6z"/>
		</g>
		<g id="Grupo_80" transform="translate(14.609)">
			<path id="Caminho_68" class="st1" d="M5.7,1.6H0.8C0.4,1.6,0,1.3,0,0.8S0.4,0,0.8,0l0,0h4.9c0.4,0,0.8,0.3,0.8,0.8
				C6.5,1.2,6.2,1.6,5.7,1.6C5.7,1.6,5.7,1.6,5.7,1.6L5.7,1.6z"/>
		</g>
		<g id="Grupo_81" transform="translate(17.044 1.015)">
			<path id="Caminho_69" class="st1" d="M0.8,12.8C0.4,12.8,0,12.4,0,12c0-0.2,0-0.3,0.1-0.5L7.4,0.4C7.7,0,8.2-0.1,8.6,0.1
				C8.9,0.4,9,0.9,8.8,1.3L1.5,12.4C1.3,12.7,1.1,12.8,0.8,12.8z"/>
		</g>
		<g id="Grupo_82" transform="translate(9.744 1.012)">
			<path id="Caminho_70" class="st1" d="M8.1,12.8c-0.3,0-0.5-0.1-0.7-0.4L0.1,1.3C-0.1,0.9,0,0.4,0.4,0.1C0.7-0.1,1.2,0,1.5,0.4
				l7.3,11.2c0.2,0.4,0.1,0.9-0.2,1.1C8.4,12.7,8.3,12.8,8.1,12.8L8.1,12.8z"/>
		</g>
		<g id="Grupo_83" transform="translate(17.044 0.111)">
			<path id="Caminho_71" class="st1" d="M0.8,7.8C0.4,7.8,0,7.5,0,7c0-0.2,0-0.3,0.1-0.5l4-6.2C4.4,0,4.9-0.1,5.3,0.1
				s0.5,0.7,0.2,1.1l-4,6.2C1.3,7.7,1.1,7.8,0.8,7.8z"/>
		</g>
		<g id="Grupo_84" transform="translate(13.001 0.108)">
			<path id="Caminho_72" class="st1" d="M4.9,7.8c-0.3,0-0.5-0.1-0.7-0.4l-4-6.2c-0.3-0.4-0.2-0.9,0.2-1.1s0.9-0.2,1.1,0.2
				c0,0,0,0.1,0.1,0.1l4,6.2c0.3,0.4,0.2,0.9-0.2,1.1C5.2,7.8,5,7.8,4.9,7.8L4.9,7.8z"/>
		</g>
		<g id="Grupo_85" transform="translate(2.438 0)">
			<path id="Caminho_73" class="st1" d="M0.8,13.8C0.4,13.8,0,13.4,0,13C0,5.8,5.8,0,13,0c0.4,0,0.8,0.4,0.8,0.8
				c0,0.4-0.4,0.8-0.8,0.8C6.7,1.6,1.6,6.7,1.6,13C1.6,13.4,1.3,13.8,0.8,13.8C0.8,13.8,0.8,13.8,0.8,13.8L0.8,13.8z"/>
		</g>
		<g id="Grupo_86" transform="translate(19.482 0.001)">
			<path id="Caminho_74" class="st1" d="M13,13.8c-0.4,0-0.8-0.4-0.8-0.8c0-6.3-5.1-11.4-11.4-11.4C0.4,1.6,0,1.3,0,0.8
				C0,0.4,0.3,0,0.8,0c0,0,0,0,0.1,0c7.2,0,13,5.8,13,13C13.8,13.4,13.4,13.8,13,13.8C13,13.8,13,13.8,13,13.8L13,13.8z"/>
		</g>
		<g id="Grupo_87" transform="translate(21.102 2.797)">
			<path id="Caminho_75" class="st1" d="M0.8,11C0.4,11,0,10.7,0,10.2C0,10,0,9.9,0.1,9.8l6.1-9.4C6.5,0,7-0.1,7.4,0.1
				c0.4,0.2,0.5,0.7,0.2,1.1l0,0l-6.1,9.4C1.3,10.9,1.1,11,0.8,11z"/>
		</g>
		<g id="Grupo_88" transform="translate(26.783 5.029)">
			<path id="Caminho_76" class="st1" d="M0.8,5.5C0.4,5.5,0,5.2,0,4.7c0-0.2,0-0.3,0.1-0.5l2.6-3.9C2.9,0,3.4-0.1,3.8,0.1
				C4.2,0.4,4.3,0.9,4,1.3L1.5,5.2C1.3,5.4,1.1,5.5,0.8,5.5L0.8,5.5z"/>
		</g>
		<g id="Grupo_89" transform="translate(21.095 12.176)">
			<path id="Caminho_77" class="st1" d="M11.4,1.6H0.8C0.4,1.6,0,1.2,0,0.8C0,0.4,0.4,0,0.8,0h10.6c0.4,0,0.8,0.4,0.8,0.8
				C12.1,1.3,11.8,1.6,11.4,1.6z"/>
		</g>
		<g id="Grupo_90" transform="translate(26.789 8.931)">
			<path id="Caminho_78" class="st1" d="M5.2,1.6H0.8C0.4,1.6,0,1.3,0,0.8C0,0.4,0.4,0,0.8,0l0,0h4.4c0.4,0,0.8,0.3,0.8,0.8
				C6.1,1.2,5.7,1.6,5.2,1.6C5.3,1.6,5.3,1.6,5.2,1.6L5.2,1.6z"/>
		</g>
		<g id="Grupo_95" transform="translate(2.435 2.794)">
			<g id="Grupo_91" transform="translate(4.415 0)">
				<path id="Caminho_79" class="st1" d="M7,11c-0.3,0-0.5-0.1-0.7-0.4L0.1,1.3C-0.1,0.9,0,0.4,0.4,0.1C0.7-0.1,1.2,0,1.5,0.4
					l6.1,9.4c0.2,0.4,0.1,0.9-0.2,1.1C7.3,11,7.1,11,7,11L7,11z"/>
			</g>
			<g id="Grupo_92" transform="translate(2.32 2.232)">
				<path id="Caminho_80" class="st1" d="M3.4,5.5c-0.3,0-0.5-0.1-0.7-0.4L0.1,1.3C-0.1,0.9,0,0.4,0.4,0.1C0.7-0.1,1.2,0,1.5,0.4
					L4,4.3c0.2,0.4,0.1,0.9-0.2,1.1C3.7,5.5,3.5,5.5,3.4,5.5L3.4,5.5z"/>
			</g>
			<g id="Grupo_93" transform="translate(0 9.382)">
				<path id="Caminho_81" class="st1" d="M11.4,1.6H0.8C0.4,1.6,0,1.3,0,0.8C0,0.4,0.3,0,0.8,0c0,0,0,0,0.1,0h10.6
					c0.4,0,0.8,0.3,0.8,0.8S11.9,1.6,11.4,1.6C11.4,1.6,11.4,1.6,11.4,1.6L11.4,1.6z"/>
			</g>
			<g id="Grupo_94" transform="translate(0.442 6.129)">
				<path id="Caminho_82" class="st1" d="M5.2,1.6H0.8C0.4,1.6,0,1.3,0,0.8S0.3,0,0.8,0c0,0,0,0,0.1,0h4.4c0.4,0,0.8,0.3,0.8,0.8
					S5.7,1.6,5.2,1.6C5.3,1.6,5.3,1.6,5.2,1.6z"/>
			</g>
		</g>
		<g id="Grupo_96" transform="translate(27.603 42.211)">
			<path id="Caminho_83" class="st1" d="M0.8,6.5C0.4,6.5,0,6.1,0,5.7c0,0,0,0,0,0V0.8C0,0.4,0.4,0,0.8,0c0.4,0,0.8,0.4,0.8,0.8v4.9
				C1.6,6.1,1.3,6.5,0.8,6.5C0.8,6.5,0.8,6.5,0.8,6.5z"/>
		</g>
		<g id="Grupo_97" transform="translate(6.507 42.211)">
			<path id="Caminho_84" class="st1" d="M0.8,6.5C0.4,6.5,0,6.1,0,5.7V0.8C0,0.4,0.3,0,0.8,0c0.4,0,0.8,0.3,0.8,0.8c0,0,0,0,0,0.1
				v4.9C1.6,6.1,1.3,6.5,0.8,6.5C0.8,6.5,0.8,6.5,0.8,6.5z"/>
		</g>
		<g id="Grupo_98" transform="translate(0 45.456)">
			<path id="Caminho_85" class="st1" d="M7.2,1.6H0.8C0.4,1.6,0,1.3,0,0.8C-0.1,0.4,0.3,0,0.7,0c0,0,0,0,0.1,0h6.4
				C7.7,0,8,0.3,8,0.8C8.1,1.2,7.7,1.6,7.2,1.6C7.2,1.6,7.2,1.6,7.2,1.6z"/>
		</g>
		<g id="Grupo_99" transform="translate(27.6 45.456)">
			<path id="Caminho_86" class="st1" d="M7.3,1.6H0.8C0.4,1.6,0,1.2,0,0.8C0,0.4,0.4,0,0.8,0h6.5c0.4,0,0.8,0.3,0.8,0.8
				C8.2,1.2,7.8,1.6,7.3,1.6C7.3,1.6,7.3,1.6,7.3,1.6L7.3,1.6z"/>
		</g>
		<g id="Grupo_100" transform="translate(17.049 38.147)">
			<path id="Caminho_87" class="st1" d="M0.8,10.6C0.4,10.6,0,10.2,0,9.7V0.8C0,0.4,0.3,0,0.8,0c0.4,0,0.8,0.3,0.8,0.8
				c0,0,0,0,0,0.1v8.9C1.6,10.2,1.3,10.6,0.8,10.6C0.8,10.6,0.8,10.6,0.8,10.6L0.8,10.6z"/>
		</g>
		<g id="Grupo_101" transform="translate(17.036 34.904)">
			<path id="Caminho_88" class="st1" d="M0.8,4.9C0.4,4.9,0,4.5,0,4.1c0-0.3,0.2-0.6,0.4-0.7l5.7-3.2C6.5-0.1,7,0,7.2,0.4
				c0.2,0.4,0.1,0.9-0.3,1.1L1.2,4.8C1.1,4.8,1,4.9,0.8,4.9L0.8,4.9z"/>
		</g>
		<g id="Grupo_102" transform="translate(11.367 34.904)">
			<path id="Caminho_89" class="st1" d="M6.5,4.9c-0.1,0-0.3,0-0.4-0.1L0.4,1.5C0,1.3-0.1,0.8,0.1,0.4C0.3,0,0.8-0.1,1.2,0.1l0,0
				l5.7,3.2c0.4,0.2,0.5,0.7,0.3,1.1C7.1,4.7,6.8,4.9,6.5,4.9L6.5,4.9z"/>
		</g>
	</g>
</g>
</svg>
