<?xml version="1.0" encoding="utf-8"?>
<!-- Generator: Adobe Illustrator 23.0.1, SVG Export Plug-In . SVG Version: 6.00 Build 0)  -->
<svg version="1.1" id="Layer_1" xmlns="http://www.w3.org/2000/svg" xmlns:xlink="http://www.w3.org/1999/xlink" x="0px" y="0px"
	 viewBox="0 0 30.8 49.7" style="enable-background:new 0 0 30.8 49.7;" xml:space="preserve">
<style type="text/css">
	.st0{fill:#050545;stroke:#FFFFFF;}
	.st1{fill:#FFFFFF;}
</style>
<g id="Grupo_134" transform="translate(-181.085 -254.326)">
	<g id="Grupo_66" transform="translate(166.794 249.273)">
		<g id="Grupo_64" transform="translate(0 0)">
			<g id="robber" transform="translate(14.792 5.558)">
				<path id="Caminho_19" class="st0" d="M7.2,28.9C3.1,29.5,0,33,0,37.1v8.3c0,1.8,1.5,3.3,3.3,3.3h23.2c1.8,0,3.3-1.5,3.3-3.3
					v-8.3c0-4.1-3.1-7.6-7.2-8.2H7.2z"/>
				<path id="Retângulo_45" class="st0" d="M3.3,15.6h23.2c1.4,0,2.5,1.1,2.5,2.5l0,0c0,1.4-1.1,2.5-2.5,2.5H3.3
					c-1.4,0-2.5-1.1-2.5-2.5l0,0C0.8,16.7,1.9,15.6,3.3,15.6z"/>
				<path id="Caminho_22" class="st0" d="M25.7,11.4v10.7c0,5.1-4.1,9.2-9.2,9.2h-3.1c-5.1,0-9.2-4.1-9.2-9.2V11.4H25.7z"/>
				<path id="Caminho_23" class="st0" d="M3.3,8.9c0-4.6,3.7-8.3,8.3-8.3h6.6c4.6,0,8.3,3.7,8.3,8.3H3.3z"/>
				<path id="Caminho_24" class="st0" d="M8.3,8.9c-0.5,0-0.8-0.4-0.8-0.8c0,0,0,0,0-0.1c0.2-3.8,2.8-7,6.4-8c0.4-0.1,0.9,0.2,1,0.6
					c0,0,0,0.1,0,0.1l0,0c0,0.4-0.2,0.8-0.6,0.9c-1.4,0.3-2.6,1.1-3.4,2.2c-1,1.2-1.6,2.7-1.7,4.3C9.1,8.6,8.7,8.9,8.3,8.9L8.3,8.9z
					"/>
				<path id="Caminho_25" class="st0" d="M21.5,8.9c-0.4,0-0.8-0.3-0.8-0.8C20.6,6.6,20,5.1,19,3.9c-0.9-1.1-2.1-1.9-3.4-2.2
					c-0.4-0.1-0.7-0.5-0.6-0.9l0,0C15,0.3,15.4,0,15.8,0c0,0,0.1,0,0.1,0c3.6,1,6.2,4.2,6.4,8C22.4,8.5,22,8.9,21.5,8.9
					C21.6,8.9,21.5,8.9,21.5,8.9L21.5,8.9z"/>
				<path id="Caminho_26" class="st0" d="M4.1,12.2h21.5v9.9H4.1V12.2z"/>
				<path id="Retângulo_46" class="st0" d="M14.9,0.6L14.9,0.6c0.5,0,0.8,0.4,0.8,0.8v6.6c0,0.5-0.4,0.8-0.8,0.8l0,0
					c-0.5,0-0.8-0.4-0.8-0.8V1.5C14.1,1,14.5,0.6,14.9,0.6z"/>
				<path id="Caminho_30" class="st0" d="M12.5,17.3c-0.4,1.4-1.9,2.1-3.2,1.6c-1.4-0.4-2.1-1.9-1.6-3.2c0,0,0-0.1,0-0.1L12.5,17.3z
					"/>
				<path id="Caminho_31" class="st0" d="M17.4,17.3c0.5,1.3,1.9,2,3.3,1.6c1.3-0.5,2-1.9,1.6-3.3L17.4,17.3z"/>
				<path id="Caminho_32" class="st0" d="M2.5,8.9h24.9v3.3H2.5V8.9z"/>
			</g>
		</g>
		<path id="Caminho_48" class="st1" d="M29.7,34.3c-1.7,0.1-3.3-0.7-4.2-2.2l1.5-0.8l0,0c1.2,1.5,3.4,1.7,4.8,0.4
			c0.2-0.1,0.3-0.3,0.4-0.4l0,0l1.5,0.8C33,33.5,31.4,34.4,29.7,34.3z"/>
	</g>
</g>
</svg>
